Coordinates
version=1
nRows=15
nColumns=42
inDegrees=yes

Units are S.I. units (second, meters, Newtons, ...)
If the header above contains a line with 'inDegrees', this indicates whether rotational values are in degrees (yes) or radians (no).

endheader
time	pelvis_tilt	pelvis_list	pelvis_rotation	pelvis_tx	pelvis_ty	pelvis_tz	hip_flexion_r	hip_adduction_r	hip_rotation_r	knee_angle_r	knee_adduction_r	knee_angle_r_beta	ankle_angle_r	subtalar_angle_r	mtp_angle_r	hip_flexion_l	hip_adduction_l	hip_rotation_l	knee_angle_l	knee_adduction_l	knee_angle_l_beta	ankle_angle_l	subtalar_angle_l	mtp_angle_l	lumbar_extension	lumbar_bending	lumbar_rotation	arm_flex_r	arm_add_r	arm_rot_r	elbow_flex_r	pro_sup_r	wrist_flex_r	wrist_dev_r	arm_flex_l	arm_add_l	arm_rot_l	elbow_flex_l	pro_sup_l	wrist_flex_l	wrist_dev_l
      4.50000000	     -0.57695228	    -10.14696734	     -8.14896582	     -0.80623180	      0.82586123	      0.32087202	      4.34320840	     10.26999839	    -22.94236853	     20.74612692	     -2.29203383	      0.36208822	     22.13265322	     30.73354461	     -7.50203997	     29.79299338	    -23.32272214	    -28.73975066	     43.89885727	     -8.85322528	      0.76617960	     17.45042413	     28.00970164	     -7.50203997	    -23.45103644	     10.69384856	      1.58558940	    -10.91234864	     -4.48983295	    -11.58116558	    107.21743021	     90.00000001	      0.00000000	      0.00000000	      1.01174851	     -8.95377207	    -16.75040678	     46.58649279	     90.00000001	      0.00000000	      0.00000000
      4.51000000	     -0.58877603	    -10.25933721	     -8.35500714	     -0.80344641	      0.82579372	      0.31983551	      4.10495571	     10.30629475	    -22.71432543	     20.68003771	     -2.30837096	      0.36093475	     22.29495638	     30.72310853	     -7.50202047	     29.51265360	    -23.28453705	    -28.71511228	     43.12173076	     -8.54803646	      0.75261618	     17.32841423	     28.16779956	     -7.50202047	    -23.42958240	     10.71781100	      1.63190858	    -10.89271877	     -4.46798621	    -11.70938199	    107.14130593	     90.00000001	      0.00000000	      0.00000000	      0.98558128	     -8.98754095	    -16.88037624	     46.41422353	     90.00000001	      0.00000000	      0.00000000
      4.52000000	     -0.46892888	    -10.28591822	     -8.52499438	     -0.80030016	      0.82587496	      0.31877961	      3.67641591	     10.24990327	    -22.38721765	     20.56707863	     -2.32618026	      0.35896324	     22.49729002	     30.68769909	     -7.50199558	     29.03552982	    -23.17238904	    -28.80598917	     42.54676733	     -8.31676775	      0.74258118	     17.16379028	     28.32101554	     -7.50199558	    -23.43193584	     10.59042731	      1.56308318	    -10.91990808	     -4.44399411	    -11.90562078	    107.04476328	     90.00000001	      0.00000000	      0.00000000	      0.94294231	     -8.97931778	    -17.02452355	     46.16485748	     90.00000001	      0.00000000	      0.00000000
      4.53000000	     -0.53491473	    -10.39959126	     -8.67689820	     -0.79715146	      0.82560375	      0.31754012	      3.50700133	     10.25675178	    -22.30171093	     20.61006238	     -2.36280327	      0.35971345	     22.51215154	     30.64591440	     -7.50199026	     28.92730616	    -23.14394168	    -28.76870522	     42.36064121	     -8.25947840	      0.73933266	     17.13735917	     28.29569889	     -7.50199026	    -23.24196608	     10.65895798	      1.50234603	    -10.98783102	     -4.48689677	    -11.99199801	    107.03272211	     90.00000001	      0.00000000	      0.00000000	      0.75715462	     -9.02028818	    -17.05995358	     46.08624637	     90.00000001	      0.00000000	      0.00000000
      4.54000000	     -0.48757506	    -10.40020852	     -8.94182651	     -0.79419534	      0.82588293	      0.31640845	      3.17565837	     10.24038705	    -21.84513594	     20.42753857	     -2.49049546	      0.35652781	     22.75881934	     30.59517059	     -7.50197235	     28.32998302	    -22.91175933	    -28.70502604	     41.61759118	     -8.01427510	      0.72636399	     17.01899646	     28.36387109	     -7.50197235	    -23.22829938	     10.51879800	      1.53449967	    -10.95570236	     -4.37091780	    -12.16191172	    106.88594259	     90.00000001	      0.00000000	      0.00000000	      0.76356017	     -9.03979303	    -17.16959145	     45.86258893	     90.00000001	      0.00000000	      0.00000000
      4.55000000	     -0.01414397	    -10.30714100	     -9.19307730	     -0.79077654	      0.82676694	      0.31510417	      2.28562638	      9.93708188	    -21.19878783	     20.23208603	     -2.33379522	      0.35311652	     22.86364277	     30.19600120	     -7.50190919	     27.20801458	    -22.57864273	    -29.17474751	     41.08853324	     -8.02094852	      0.71713019	     16.78442343	     28.41547797	     -7.50190919	    -23.60885907	     10.20414475	      1.58672790	    -10.94727611	     -4.29303350	    -12.33604350	    106.76619181	     90.00000001	      0.00000000	      0.00000000	      0.82003020	     -9.06683923	    -17.41295231	     45.56184977	     90.00000001	      0.00000000	      0.00000000
      4.56000000	      0.03410700	    -10.28742739	     -9.43970197	     -0.78761332	      0.82707004	      0.31380146	      1.96522003	      9.84339159	    -20.80711693	     20.14431848	     -2.40815315	      0.35158468	     22.95447407	     30.03559415	     -7.50187647	     26.71011396	    -22.33938887	    -29.04525021	     40.78834022	     -7.89852633	      0.71189083	     16.76379789	     28.41643347	     -7.50187647	    -23.53153667	     10.06828014	      1.59306615	    -10.95068476	     -4.20479201	    -12.41702649	    106.62167242	     90.00000001	      0.00000000	      0.00000000	      0.75179451	     -9.07584481	    -17.46262147	     45.41702577	     90.00000001	      0.00000000	      0.00000000
      4.57000000	      0.12031301	    -10.25302144	     -9.69988503	     -0.78440704	      0.82753095	      0.31246755	      1.60990357	      9.73528036	    -20.42272322	     20.07345547	     -2.51936220	      0.35034789	     22.99101298	     29.83018047	     -7.50185013	     26.12656691	    -22.05737633	    -28.89377178	     40.48654791	     -7.77152082	      0.70662356	     16.76080445	     28.28061220	     -7.50185013	    -23.49622393	      9.90132844	      1.60103344	    -10.96605708	     -4.12565960	    -12.47004523	    106.53020685	     90.00000001	      0.00000000	      0.00000000	      0.69348946	     -9.12021670	    -17.51226610	     45.26876994	     90.00000001	      0.00000000	      0.00000000
      4.58000000	      0.03885849	    -10.32841448	     -9.88856563	     -0.78121106	      0.82772422	      0.31098503	      1.47192937	      9.71063496	    -20.35026320	     20.12377308	     -2.57731970	      0.35122610	     22.96641094	     29.77738668	     -7.50184657	     25.93373720	    -21.94290403	    -28.74337189	     40.51706337	     -7.82460874	      0.70715616	     16.73706553	     28.24752348	     -7.50184657	    -23.27945250	      9.94009164	      1.59336232	    -11.00043534	     -4.10194264	    -12.47455631	    106.51501615	     90.00000001	      0.00000000	      0.00000000	      0.60334632	     -9.12651808	    -17.51826229	     45.24112954	     90.00000001	      0.00000000	      0.00000000
      4.59000000	      0.61206630	    -10.06947408	    -10.22285124	     -0.77783420	      0.82928107	      0.30954318	      0.51868228	      9.24664548	    -19.49221599	     19.91637174	     -2.50021474	      0.34760626	     22.85034383	     28.96620914	     -7.50178936	     24.48416977	    -21.32484112	    -28.60227044	     39.90388846	     -7.39462993	      0.69645424	     16.71080352	     27.39296910	     -7.50178936	    -23.75280390	      9.40195195	      1.63996614	    -10.95200600	     -3.93678350	    -12.49991455	    106.32594824	     90.00000001	      0.00000000	      0.00000000	      0.66862744	     -9.20576361	    -17.61041211	     44.95603386	     90.00000001	      0.00000000	      0.00000000
      4.60000000	      0.52010000	    -10.13397894	    -10.42016437	     -0.77457273	      0.82970537	      0.30797533	      0.39607673	      9.22056869	    -19.42030754	     19.97589128	     -2.57938781	      0.34864507	     22.80724622	     28.90789777	     -7.50178564	     24.27013096	    -21.19970860	    -28.42185751	     39.94252141	     -7.43189222	      0.69712851	     16.69210292	     27.36577110	     -7.50178564	    -23.50077657	      9.44039153	      1.64654363	    -10.99273957	     -3.89763068	    -12.48235584	    106.31033136	     90.00000001	      0.00000000	      0.00000000	      0.57684694	     -9.20412037	    -17.61287378	     44.93586753	     90.00000001	      0.00000000	      0.00000000
      4.61000000	      1.00884309	     -9.85843154	    -10.77668664	     -0.77135424	      0.83136931	      0.30646154	     -0.38894698	      8.76060488	    -18.62720085	     19.85949947	     -2.56774348	      0.34661365	     22.39662784	     27.83805817	     -7.50171642	     22.89795604	    -20.58427415	    -28.02974794	     39.31583232	     -6.75453427	      0.68619072	     16.71983391	     26.24824216	     -7.50171642	    -23.89570696	      8.90184935	      1.68938177	    -10.95382546	     -3.77769370	    -12.37302681	    106.15004583	     90.00000001	      0.00000000	      0.00000000	      0.62378729	     -9.29017885	    -17.66076005	     44.75585465	     90.00000001	      0.00000000	      0.00000000
      4.62000000	      1.03807233	     -9.77451032	    -11.07729009	     -0.76822374	      0.83230592	      0.30499270	     -0.57231044	      8.60627386	    -18.38692895	     19.96853857	     -2.75222920	      0.34851674	     22.11893263	     27.53020064	     -7.50169648	     22.31303673	    -20.33266660	    -27.69800839	     39.07686629	     -6.32817587	      0.68201998	     16.84182909	     26.04151363	     -7.50169648	    -23.78057133	      8.70355251	      1.73366835	    -11.00250106	     -3.68809122	    -12.22139746	    106.10157534	     90.00000001	      0.00000000	      0.00000000	      0.58130870	     -9.35855854	    -17.67575326	     44.68618565	     90.00000001	      0.00000000	      0.00000000
      4.63000000	      1.19840238	     -9.66317559	    -11.35580446	     -0.76504463	      0.83357723	      0.30339093	     -0.89975516	      8.34547739	    -18.16705202	     20.07264735	     -2.84518835	      0.35033379	     21.71312341	     27.05562150	     -7.50167612	     21.49688871	    -20.01234009	    -27.49690148	     38.67849952	     -5.88046290	      0.67506717	     16.97157026	     25.60170500	     -7.50167612	    -23.80822014	      8.47351999	      1.75599727	    -11.03947018	     -3.61222408	    -12.05171469	    106.07818831	     90.00000001	      0.00000000	      0.00000000	      0.57358868	     -9.42699989	    -17.69013177	     44.61119373	     90.00000001	      0.00000000	      0.00000000
      4.64000000	      1.52788412	     -9.51932272	    -11.62820295	     -0.76182754	      0.83521254	      0.30166481	     -1.43031919	      7.96266434	    -17.86586023	     20.16434380	     -2.80810343	      0.35193419	     21.15068569	     26.33107486	     -7.50164756	     20.44099081	    -19.56938827	    -27.40094752	     38.15146303	     -5.49534531	      0.66586864	     16.98973609	     24.92416821	     -7.50164756	    -24.00189070	      8.16939920	      1.81849194	    -11.02862987	     -3.58038150	    -11.88240951	    106.03635862	     90.00000001	      0.00000000	      0.00000000	      0.59132593	     -9.48690372	    -17.70434366	     44.56041830	     90.00000001	      0.00000000	      0.00000000
